HIERARCHY
ROOT RootJoint
{
    OFFSET   0.000000   0.000000   0.000000
    CHANNELS 6 Xposition Yposition Zposition Xrotation Yrotation Zrotation
    JOINT pelvis_lowerback
    {
        OFFSET   0.000000   0.093605   0.000000
        CHANNELS 3 Xrotation Yrotation Zrotation
        JOINT lowerback_torso
        {
            OFFSET   0.000000   0.100000   0.000000
            CHANNELS 3 Xrotation Yrotation Zrotation
            JOINT torso_head
            {
                OFFSET   0.000000   0.282350   0.000000
                CHANNELS 3 Xrotation Yrotation Zrotation
                End Site
                {
                    OFFSET   0.000000   0.192650   0.000000
                }
            }
            JOINT rTorso_Clavicle
            {
                OFFSET  -0.001000   0.157500   0.000000
                CHANNELS 3 Xrotation Yrotation Zrotation
                JOINT rShoulder
                {
                    OFFSET  -0.117647   0.000000   0.000000
                    CHANNELS 3 Xrotation Yrotation Zrotation
                    JOINT rElbow
                    {
                        OFFSET  -0.245000   0.000000   0.000000
                        CHANNELS 3 Xrotation Yrotation Zrotation
                        JOINT rWrist
                        {
                            OFFSET  -0.240000   0.000000   0.000000
                            CHANNELS 3 Xrotation Yrotation Zrotation
                            End Site
                            {
                                OFFSET  -0.116353  -0.002500   0.000000
                            }
                        }
                    }
                }
            }
            JOINT lTorso_Clavicle
            {
                OFFSET   0.001000   0.157500   0.000000
                CHANNELS 3 Xrotation Yrotation Zrotation
                JOINT lShoulder
                {
                    OFFSET   0.117647   0.000000   0.000000
                    CHANNELS 3 Xrotation Yrotation Zrotation
                    JOINT lElbow
                    {
                        OFFSET   0.245000   0.000000   0.000000
                        CHANNELS 3 Xrotation Yrotation Zrotation
                        JOINT lWrist
                        {
                            OFFSET   0.240000   0.000000   0.000000
                            CHANNELS 3 Xrotation Yrotation Zrotation
                            End Site
                            {
                                OFFSET   0.116353  -0.002500   0.000000
                            }
                        }
                    }
                }
            }
        }
    }
    JOINT rHip
    {
        OFFSET  -0.100000  -0.051395   0.000000
        CHANNELS 3 Xrotation Yrotation Zrotation
        JOINT rKnee
        {
            OFFSET   0.000000  -0.410000   0.000000
            CHANNELS 3 Xrotation Yrotation Zrotation
            JOINT rAnkle
            {
                OFFSET   0.000000  -0.390000   0.000000
                CHANNELS 3 Xrotation Yrotation Zrotation
                JOINT rToeJoint
                {
                    OFFSET   0.000000  -0.050000   0.130000
                    CHANNELS 3 Xrotation Yrotation Zrotation
                    End Site
                    {
                        OFFSET  -0.010000   0.002000   0.060000
                    }
                }
            }
        }
    }
    JOINT lHip
    {
        OFFSET   0.100000  -0.051395   0.000000
        CHANNELS 3 Xrotation Yrotation Zrotation
        JOINT lKnee
        {
            OFFSET   0.000000  -0.410000   0.000000
            CHANNELS 3 Xrotation Yrotation Zrotation
            JOINT lAnkle
            {
                OFFSET   0.000000  -0.390000   0.000000
                CHANNELS 3 Xrotation Yrotation Zrotation
                JOINT lToeJoint
                {
                    OFFSET   0.000000  -0.050000   0.130000
                    CHANNELS 3 Xrotation Yrotation Zrotation
                    End Site
                    {
                        OFFSET   0.010000   0.002000   0.060000
                    }
                }
            }
        }
    }
}
MOTION
Frames: 15
Frame Time:   0.008333
 -2.376719   0.925631   3.975860   0.000000   0.000000   0.000000   0.000000   0.000000   0.000000   0.000000   0.000000   0.000000   0.000000   0.000000   0.000000   0.000000   0.000000   0.000000   0.000000   0.000000   0.000000   0.000000   0.000000   0.000000   0.000000   0.000000   0.000000   0.000000   0.000000   0.000000   0.000000   0.000000   0.000000   0.000000   0.000000   0.000000   0.000000   0.000000   0.000000   0.000000   0.000000   0.000000   0.000000   0.000000   0.000000   0.000000   0.000000   0.000000   0.000000   0.000000   0.000000   0.000000   0.000000   0.000000   0.000000   0.000000   0.000000   0.000000   0.000000   0.000000   0.000000   0.000000   0.000000
 -2.376508   0.925866   3.975359   0.031586   0.166573   0.122371   0.020199   0.014220  -0.136458   0.087567  -0.168463   0.018511  -0.118452   0.125103  -0.073344   0.246429  -0.354581  -0.201430   0.633680   0.265601   2.369045   0.020409   1.070459  -0.009709   0.208313  -0.552177  -2.360350   0.179466   0.123738   0.175125   0.885151  -0.123353  -2.334866   0.020180  -1.065939   0.011388   0.300908   0.571169   2.279652  -0.313449  -0.029845  -0.298830   0.624797   0.000963   0.000734  -0.593642  -0.340687  -0.105962   0.039144   0.000096  -0.000070  -0.289573  -0.302029  -0.027247   0.612700  -0.000519  -0.000724  -0.778473   0.167603   0.257033   0.156091  -0.000479   0.000044
 -2.376248   0.926335   3.974632   0.018251   0.382432   0.255202   0.088610   0.004599  -0.268344   0.224897  -0.366428   0.029393  -0.222089   0.247408  -0.148454   0.485189  -0.628771   0.200999   1.242865   0.623224   5.213530   0.046658   2.119315  -0.017551   0.444781  -0.761149  -4.065181   0.357494   0.135664  -0.250544   1.747572  -0.382149  -5.146901   0.046305  -2.116799   0.020781   0.633289   0.798446   3.892277  -0.640465  -0.056983  -0.734779   1.265237   0.002478   0.001581  -1.148180  -0.663153  -0.210936   0.053507   0.000127  -0.000073  -0.542387  -0.592565   0.038515   1.237896  -0.001532  -0.000968  -1.510156   0.322428   0.499582   0.252302  -0.000755   0.000105
 -2.375974   0.926709   3.973780  -0.007071   0.615124   0.380886   0.181593  -0.023983  -0.386570   0.378297  -0.574192   0.042100  -0.317370   0.362160  -0.218864   0.709607  -0.822737   0.987423   1.818599   1.056017   8.360017   0.072511   3.116077  -0.023266   0.679501  -0.816572  -5.089350   0.521731   0.060835  -1.057386   2.576289  -0.751498  -8.261035   0.072205  -3.121897   0.027909   0.961058   0.842545   4.827417  -0.983595  -0.078984  -1.261003   1.858785   0.004082   0.002233  -1.666518  -0.964424  -0.313022   0.061881   0.000138  -0.000066  -0.764546  -0.862180   0.200745   1.826742  -0.002747  -0.000913  -2.194352   0.465640   0.728398   0.332303  -0.000966   0.000161
 -2.375698   0.926750   3.972880  -0.032958   0.847457   0.497012   0.289176  -0.065208  -0.492015   0.535036  -0.783782   0.058521  -0.406502   0.469482  -0.284085   0.919256  -0.955094   2.002334   2.358081   1.553580  11.708760   0.095131   4.058520  -0.027182   0.910731  -0.783509  -5.615646   0.669414  -0.072607  -2.088836   3.367688  -1.215683 -11.574935   0.094985  -4.076940   0.033129   1.283169   0.771072   5.272691  -1.340775  -0.095375  -1.853420   2.399918   0.005546   0.002626  -2.151798  -1.245734  -0.411762   0.063679   0.000119  -0.000054  -0.958707  -1.113104   0.445489   2.376383  -0.003972  -0.000732  -2.834257   0.598154   0.944258   0.399505  -0.001113   0.000200
 -2.375426   0.926283   3.971993  -0.054801   1.070064   0.603940   0.404111  -0.115018  -0.586183   0.688854  -0.991109   0.078334  -0.489484   0.569782  -0.344513   1.113312  -1.043202   3.141859   2.858612   2.104771  15.192391   0.113334   4.946419  -0.029598   1.137102  -0.695197  -5.804391   0.798698  -0.242844  -3.240731   4.118091  -1.760464 -15.019565   0.113412  -4.980366   0.036759   1.598188   0.623311   5.390300  -1.706867  -0.105786  -2.494407   2.892258   0.006763   0.002785  -2.606180  -1.508346  -0.506879   0.060418   0.000078  -0.000041  -1.125296  -1.347462   0.757044   2.890165  -0.005095  -0.000516  -3.432563   0.720695   1.147779   0.456651  -0.001202   0.000219
 -2.375193   0.925170   3.971165  -0.070719   1.277582   0.704692   0.521004  -0.170922  -0.675670   0.836334  -1.194238   0.090015  -0.566413   0.663497  -0.397506   1.291730  -1.101439   4.342329   3.318149   2.699167  18.769552   0.126843   5.780401  -0.030779   1.356684  -0.574425  -5.766079   0.910302  -0.434153  -4.480737   4.798607  -2.353073 -18.441752   0.126813  -5.833099   0.038866   1.904591   0.419377   5.238900  -2.076638  -0.110008  -3.168684   3.340892   0.007685   0.002762  -3.031603  -1.753479  -0.598241   0.053300   0.000022  -0.000029  -1.264667  -1.566810   1.121693   3.371921  -0.006069  -0.000312  -3.991798   0.833921   1.339496   0.505787  -0.001245   0.000222
 -2.375019   0.922779   3.970015  -0.001293   1.272997   0.594845   0.670545  -0.140873  -0.445519   0.913237  -1.334363   0.028561  -0.765671   0.682104  -0.472085   1.444563  -1.012146   4.943844   3.870324   3.337242  22.377256   0.138710   6.730380  -0.034179   1.543729  -0.531605  -4.911091   1.147990  -0.538810  -4.999099   5.296361  -3.049332 -22.020303   0.139402  -6.846624   0.042756   2.163481   0.152126   4.208921  -2.875797  -0.225679  -3.539135   4.688038   0.011669  -0.000219  -3.780970  -1.986008  -0.493924   0.144773   0.000312  -0.000338  -1.299496  -1.529463   1.663201   3.098558  -0.003829  -0.000414  -3.981874   0.907982   1.670176   0.613731  -0.001710   0.000292
 -2.374995   0.921517   3.968864   0.012191   1.196915   0.187049   0.886399  -0.093695   0.013072   1.018909  -1.436081   0.095506  -0.956917   0.695468  -0.536106   1.565697  -0.860030   5.494739   4.332009   4.006105  25.698879   0.144362   7.633667  -0.036116   1.737676  -0.410392  -4.098755   1.358413  -0.668050  -5.482327   5.711400  -3.750973 -25.333244   0.144731  -7.807152   0.045094   2.418877  -0.208471   3.208919  -3.777913  -0.481962  -3.177295   6.231929   0.009455  -0.005365  -4.118384  -2.305771  -0.193638   0.276732  -0.000040  -0.001054  -1.284382  -1.487493   2.423037   2.747485  -0.001985  -0.000329  -3.967864   0.980296   1.981004   0.783723  -0.002338   0.000329
 -2.374445   0.921347   3.968012   0.017601   1.257453   0.351017   1.072718  -0.106916   0.018060   1.121870  -1.572576  -0.002701  -1.127302   0.705012  -0.605620   1.680690  -0.719146   6.044265   4.725666   4.659990  28.828598   0.145137   8.482706  -0.036591   1.927235  -0.252205  -3.313644   1.541555  -0.812220  -5.856689   6.056299  -4.437705 -28.360739   0.144372  -8.709459   0.045342   2.665586  -0.600617   2.321839  -4.465447  -0.612386  -3.426215   7.516061   0.008114  -0.005938  -4.773635  -2.510738  -0.109595   0.420649  -0.000057  -0.001258  -1.371973  -1.371189   2.213948   2.698702  -0.001609  -0.000338  -3.566012   1.120421   2.132659   0.928556  -0.002014   0.000657
 -2.374028   0.921310   3.967355   0.058973   1.312403   0.467274   1.218924  -0.102230   0.106998   1.197637  -1.693375  -0.088123  -1.287324   0.714981  -0.681959   1.785596  -0.588440   6.471247   5.061039   5.286823  31.708212   0.141636   9.277298  -0.035955   2.108102  -0.081463  -2.573291   1.708197  -0.944768  -6.131031   6.345500  -5.093049 -31.153742   0.139520  -9.555411   0.044154   2.897594  -1.001921   1.510132  -5.095640  -0.711697  -3.576381   8.690307   0.006468  -0.005856  -5.395436  -2.695447  -0.044164   0.523789  -0.000095  -0.001256  -1.434179  -1.316095   2.050616   2.592270  -0.001333  -0.000371  -3.350256   1.190365   2.372357   1.065237  -0.001843   0.000742
 -2.373740   0.921297   3.966827   0.128776   1.377027   0.562943   1.342787  -0.093011   0.226821   1.253525  -1.801287  -0.144545  -1.439482   0.724639  -0.750942   1.880312  -0.468086   6.806641   5.345837   5.882323  34.354161   0.135284  10.018892  -0.034629   2.279523   0.083416  -1.931105   1.860577  -1.063135  -6.323338   6.588624  -5.710081 -33.720017   0.131658 -10.344481   0.042017   3.114900  -1.386909   0.803138  -5.676850  -0.804529  -3.669362   9.785450   0.004803  -0.005440  -5.976722  -2.867569   0.015350   0.611773  -0.000141  -0.001190  -1.496071  -1.274167   1.916953   2.451390  -0.001114  -0.000425  -3.183157   1.250811   2.604177   1.178407  -0.001667   0.000760
 -2.373561   0.921273   3.966398   0.219800   1.457426   0.653891   1.452174  -0.081216   0.361925   1.297716  -1.898407  -0.178534  -1.582931   0.733783  -0.813135   1.966767  -0.358884   7.070050   5.587774   6.444725  36.790140   0.127204  10.710234  -0.032913   2.441921   0.236321  -1.383352   2.000897  -1.166842  -6.447323   6.793612  -6.287296 -36.078381   0.122019 -11.079186   0.039280   3.318841  -1.745993   0.198178  -6.207978  -0.892436  -3.730387  10.810102   0.003267  -0.004770  -6.519434  -3.028320   0.069407   0.690405  -0.000186  -0.001092  -1.564789  -1.237660   1.795899   2.294002  -0.000933  -0.000495  -3.043753   1.306530   2.822798   1.279725  -0.001500   0.000763
 -2.373511   0.921202   3.966076   0.255181   1.548845   0.749782   1.621065  -0.092490   0.478610   1.327156  -1.941264  -0.164860  -1.659369   0.659833  -0.901813   1.997016  -0.302504   6.976134   5.827134   6.920724  38.766859   0.117468  11.475781  -0.031438   2.562165   0.493502  -0.169483   2.130414  -1.204711  -6.264777   6.924286  -6.892061 -38.141681   0.111566 -11.892830   0.036804   3.460856  -2.054792  -0.826600  -6.635685  -1.027839  -3.776485  11.787530   0.001842  -0.004435  -7.112215  -3.167391   0.007751   0.895807  -0.000178  -0.001261  -1.617721  -1.114467   1.685357   2.233116  -0.000756  -0.000509  -2.969480   1.405913   3.038058   1.371377  -0.001359   0.000865
 -2.373620   0.921118   3.965881   0.288989   1.640542   0.838365   1.769750  -0.100272   0.603422   1.348496  -1.976936  -0.152256  -1.721205   0.588647  -0.979582   2.011758  -0.260289   6.648952   6.040987   7.351118  40.438301   0.105203  12.189840  -0.029446   2.674713   0.766862   0.817479   2.241080  -1.229558  -5.903724   7.030619  -7.443511 -39.935329   0.099238 -12.654193   0.033825   3.592454  -2.373001  -1.662462  -7.016031  -1.158796  -3.794769  12.706423   0.000592  -0.004002  -7.665991  -3.296921  -0.051425   1.082149  -0.000206  -0.001327  -1.665139  -0.992165   1.593959   2.185166  -0.000607  -0.000496  -2.917022   1.501554   3.238100   1.456176  -0.001231   0.000924
